<svg width="10" height="8" viewBox="0 0 10 8" fill="none" xmlns="http://www.w3.org/2000/svg"><path d="M1.31 6.67h1.4V1.83l.1-.59-.4.47-1.1.8-.38-.52L3.13.3h.36v6.38h1.37v.74H1.31v-.74ZM9.14 2c0 .35-.06.72-.2 1.1-.12.36-.3.73-.5 1.1-.21.37-.45.74-.7 1.1-.27.35-.53.7-.79 1.01l-.49.43v.04l.64-.1h2.18v.73H5.3v-.29A33.42 33.42 0 0 0 6.47 5.8a15.13 15.13 0 0 0 1.25-1.83c.18-.32.33-.64.43-.95.1-.31.16-.6.16-.89 0-.33-.1-.6-.28-.8-.18-.23-.47-.34-.85-.34-.25 0-.5.05-.74.16-.24.1-.44.22-.62.35L5.5.93c.24-.2.51-.36.83-.47C6.64.35 7 .3 7.35.3c.29 0 .54.04.76.13a1.5 1.5 0 0 1 .91.9c.08.2.12.43.12.68Z" fill="#fff"/></svg>